<svg id="kamotalk-wordmark-stacked" data-name="KamoTalk Wordmark Stacked" xmlns="http://www.w3.org/2000/svg" viewBox="0 0 494 288" role="img" aria-labelledby="title desc">
  <title id="title">KamoTalk stacked wordmark</title>
  <desc id="desc">Two-line KamoTalk wordmark with Kamo above Talk.</desc>
  <g id="wordmark" data-name="Wordmark">
    <g id="wordmark-kamo" data-name="Wordmark Kamo" transform="translate(0 0) scale(1 1) translate(0 4)">
  <title id="title">Kamo wordmark</title>
  <desc id="desc">Kamo portion of the KamoTalk wordmark.</desc>
  <defs>
    <style>
      .brand-green {
        fill: #2eb08e;
      }
    </style>
  </defs>
  <path id="k" data-name="K" class="brand-green" transform="translate(-266 -615)" d="M266 622 Q266 619 269 619 L288 619 Q291 619 291 622 L291 672 L342 620 Q343 619 345 619 L370 619 Q373 619 371 622 L319 678 L372 740 Q374 744 369 744 L343 744 Q341 744 339 742 L300 694 L291 703 L291 741 Q291 744 288 744 L269 744 Q266 744 266 741 Z"/>
  <path id="a" data-name="A" class="brand-green" transform="translate(-266 -615)" fill-rule="evenodd" d="M425 648 C452 648 469 662 469 686 L469 741 Q469 744 466 744 L451 744 Q447 744 447 740 L447 734 C439 742 428 746 414 746 C393 746 381 735 381 717 C381 699 394 690 421 687 L445 684 C445 673 438 668 426 668 C416 668 409 672 406 681 L389 681 Q385 681 386 677 C390 659 405 648 425 648 Z M445 702 L426 704 C412 706 405 710 405 718 C405 726 412 730 423 728 C436 726 445 716 445 704 Z"/>
  <path id="m" data-name="M" class="brand-green" transform="translate(-266 -615)" d="M494 654 Q494 651 497 651 L515 651 Q518 651 518 654 L518 662 C525 653 535 648 548 648 C562 648 572 654 578 664 C586 653 598 648 612 648 C632 648 641 662 641 689 L641 741 Q641 744 638 744 L619 744 Q616 744 616 741 L616 690 C616 678 611 671 601 671 C588 671 580 680 580 693 L580 741 Q580 744 577 744 L559 744 Q556 744 556 741 L556 690 C556 678 551 671 541 671 C527 671 518 681 518 695 L518 741 Q518 744 515 744 L497 744 Q494 744 494 741 Z"/>
  <path id="o" data-name="O" class="brand-green" transform="translate(-266 -615)" fill-rule="evenodd" d="M709 648 C739 648 758 667 758 697 C758 727 739 746 709 746 C679 746 660 727 660 697 C660 667 679 648 709 648 Z M709 671 C693 671 683 681 683 697 C683 713 693 724 709 724 C725 724 735 713 735 697 C735 681 725 671 709 671 Z"/>
</g>
    <g id="wordmark-talk" data-name="Wordmark Talk" transform="translate(70 145) scale(1 1) translate(0 4)">
  <title id="title">Talk wordmark</title>
  <desc id="desc">Talk portion of the KamoTalk wordmark.</desc>
  <defs>
    <style>
      .brand-green {
        fill: #2eb08e;
      }
    </style>
  </defs>
  <path id="t" data-name="T" class="brand-green" transform="translate(-336 -768)" d="M336 775 Q336 772 339 772 L431 772 Q434 772 434 775 L434 793 Q434 796 431 796 L397 796 L397 893 Q397 896 394 896 L374 896 Q371 896 371 893 L371 796 L339 796 Q336 796 336 793 Z"/>
  <path id="a" data-name="A" class="brand-green" transform="translate(-336 -768)" fill-rule="evenodd" d="M482 802 C507 802 521 815 521 837 L522 893 Q522 896 519 896 L502 896 Q499 896 499 893 L498 886 C490 895 479 899 465 899 C445 899 433 889 433 873 C433 856 446 847 472 843 L497 840 C497 828 491 822 478 822 C469 822 462 826 459 834 L442 834 Q438 834 439 830 C443 812 459 802 482 802 Z M497 856 L477 859 C464 861 458 866 459 873 C460 880 467 883 478 881 C489 879 497 870 497 858 Z"/>
  <path id="l" data-name="L" class="brand-green" transform="translate(-336 -768)" d="M546 775 Q546 772 549 772 L567 772 Q570 772 570 775 L570 893 Q570 896 567 896 L549 896 Q546 896 546 893 Z"/>
  <path id="k" data-name="K" class="brand-green" transform="translate(-336 -768)" d="M594 775 Q594 772 597 772 L615 772 Q618 772 618 775 L618 840 L654 805 Q655 804 657 804 L678 804 Q682 804 679 808 L647 842 Q645 845 647 848 L681 892 Q684 896 679 896 L654 896 Q652 896 650 894 L622 858 Q620 856 618 858 L618 893 Q618 896 615 896 L597 896 Q594 896 594 893 Z"/>
</g>
  </g>
</svg>
