<?xml version="1.0" encoding="UTF-8"?>
<svg id="kamotalk-symbol-square" data-name="KamoTalk Symbol Square" xmlns="http://www.w3.org/2000/svg" viewBox="0 0 1024 1024" role="img" aria-labelledby="title desc">
  <title id="title">KamoTalk square symbol</title>
  <desc id="desc">KamoTalk square brand asset with the KamoTalk symbol and wordmark.</desc>
  <defs>
    <style>
      .background-cream {
        fill: #faf3e3;
      }

      .brand-green {
        fill: #30a083;
      }

      .duck-orange {
        fill: #e9a350;
      }
    </style>
  </defs>
  <g id="base" data-name="Base">
    <rect id="background" data-name="Background" class="background-cream" width="1024" height="1024"/>
  </g>
  <g id="symbol" data-name="Symbol" transform="translate(253 125) scale(1.09)">
    <path id="symbol-speech-bubble" data-name="Speech Bubble" class="brand-green" d="M103.05,378.04c-54.72-1.87-99.51-45.99-103.05-100.45L.05,99.55C3.71,46.45,47.49,3.37,100.5,0l275.03.05c53.27,4.16,96.15,46.87,99.55,100.45l-.05,178.03c-3.39,49.21-41.89,91.1-90.62,98.38l-187.65,1.35-68.77,56.23c-9.16,6.89-21,3.53-24.51-7.37l-.43-49.07ZM339.04,152.04c-8.05-47.28-36.45-89.33-86.77-96.73-67.52-9.93-117.49,33.77-128.98,98.48-6.87,38.72,3.7,77.86,4.79,116.7.42,14.94-.85,29.69-2.04,44.54h145c-24.89-30.45-32.71-76.88,14-90,15.22,5.81,41.98,10.04,58.38,12.12,24.26,3.08,55.01,5.08,76.38-7.8.93-.56,5.6-4.3,6.17-5.11,13.78-19.71-15.51-23.41-27.61-28.03-11.02-4.21-26.07-12.53-35.26-19.91-8.16-6.56-15.8-17.36-24.06-24.27Z"/>
    <path id="duck-head" data-name="Duck Head" class="background-cream" d="M339.04,152.04c-6.67-3.36-15.99,1.27-19.95,6.76-5.47,7.59-8.72,16.71-15.44,24.88-5.3,6.43-24.43,20.42-25.55,26.93-.96,5.61,1.39,12.31,6.94,14.43-46.71,13.12-38.89,59.55-14,90H126.04c1.19-14.85,2.46-29.6,2.04-44.54-1.09-38.85-11.66-77.99-4.79-116.7,11.49-64.71,61.46-108.41,128.98-98.48,50.32,7.4,78.72,49.45,86.77,96.73ZM268.6,146.64c14.37-19.03-10.72-37.63-25.2-23.24-7.4,7.35-5.89,20.19,2.6,26.18,6.34,4.47,17.83,3.37,22.6-2.94Z"/>
    <path id="duck-beak" data-name="Duck Beak" class="duck-orange" d="M339.04,152.04c8.26,6.91,15.9,17.71,24.06,24.27,9.19,7.38,24.24,15.7,35.26,19.91,12.11,4.62,41.39,8.32,27.61,28.03-.57.81-5.24,4.55-6.17,5.11-21.37,12.88-52.12,10.87-76.38,7.8-16.4-2.08-43.16-6.3-58.38-12.12-5.55-2.12-7.91-8.82-6.94-14.43,1.12-6.51,20.25-20.49,25.55-26.93,6.73-8.17,9.97-17.29,15.44-24.88,3.96-5.49,13.28-10.13,19.95-6.76Z"/>
    <path id="duck-eye" data-name="Duck Eye" class="brand-green" d="M268.6,146.64c-4.77,6.31-16.26,7.42-22.6,2.94-8.49-5.99-10-18.83-2.6-26.18,14.48-14.39,39.58,4.21,25.2,23.24Z"/>
  </g>
  <g id="wordmark" data-name="Wordmark">
    <path id="wordmark-m" data-name="Wordmark M" class="brand-green" d="M556.202,741.939 C556.202,741.939 555.631,687.372 555.631,687.372 C555.576,682.072 553.495,676.205 548.376,673.352 C544.042,670.937 537.385,671.485 531.927,672.159 C523.487,673.2 518.749,681.665 518.683,689.791 C518.683,689.791 518.271,740.966 518.271,740.966 C518.265,741.68 517.439,743.894 516.715,743.887 C516.715,743.887 494.214,743.659 494.214,743.659 C494.214,743.659 493.955,654.05 493.955,654.05 C493.953,653.064 495.569,651.641 496.281,651.197 C496.281,651.197 515.629,651.543 515.629,651.543 C519.688,651.615 516.372,660.984 519.31,660.641 C520.476,660.505 521.066,659.502 521.138,658.351 C528.433,651.035 537.67,647.338 548.034,647.944 C560.623,646.939 570.698,653.247 577.532,663.617 C585.858,651.981 597.657,646.619 610.651,647.391 C634.273,648.795 641.504,669.86 641.491,693.028 C641.491,693.028 641.463,743.667 641.463,743.667 C641.463,743.667 618.181,744.023 618.181,744.023 C618.181,744.023 617.2,739.553 617.2,739.553 C617.2,739.553 616.65,687.419 616.65,687.419 C616.546,677.579 609.366,670.31 599.313,671.412 C599.313,671.412 592.095,672.203 592.095,672.203 C583.955,674.852 580.559,682.626 580.472,690.777 C580.472,690.777 579.93,741.578 579.93,741.578 C579.925,742.014 578.883,743.65 578.517,743.944 C578.517,743.944 559.034,744.15 559.034,744.15 C557.98,744.161 556.218,743.457 556.202,741.939 Z "/>
    <path id="wordmark-k-upper" data-name="Wordmark K Upper" class="brand-green" d="M344.997,708.585 C344.997,708.585 369.144,736.831 369.144,736.831 C369.144,736.831 371.663,739.947 371.663,739.947 C372.345,740.791 371.363,743.864 370.098,743.87 C370.098,743.87 341.914,744.005 341.914,744.005 C341.914,744.005 300.293,694.311 300.293,694.311 C300.293,694.311 291.56,702.923 291.56,702.923 C291.56,702.923 291.307,741.174 291.307,741.174 C291.3,742.176 289.91,743.948 289.053,743.965 C289.053,743.965 269.091,744.36 269.091,744.36 C267.648,744.388 265.951,743.175 265.955,740.853 C265.955,740.853 266.13,618.777 266.13,618.777 C266.13,618.777 289.174,618.676 289.174,618.676 C289.845,618.673 290.961,620.274 291.359,620.854 C291.359,620.854 291.62,671.97 291.62,671.97 C296.46,668.89 299.665,664.958 303.181,661.047 C303.181,661.047 340.894,619.106 340.894,619.106 C340.894,619.106 369.14,619.123 369.14,619.123 C370.947,619.124 370.043,622.835 369.045,623.892 C369.045,623.892 351.012,642.99 351.012,642.99 C351.012,642.99 336.98,658.067 336.98,658.067 C336.98,658.067 319.316,677.744 319.316,677.744 C319.316,677.744 344.997,708.585 344.997,708.585 Z "/>
    <path id="wordmark-k-lower" data-name="Wordmark K Lower" class="brand-green" d="M645.865,847.164 C645.865,847.164 681.121,892.823 681.121,892.823 C681.981,893.937 681.792,896.082 680.057,896.09 C680.057,896.09 653.132,896.209 653.132,896.209 C653.132,896.209 621.772,857.218 621.772,857.218 C621.005,856.264 618.472,856.337 618.462,857.185 C618.462,857.185 618.028,896.033 618.028,896.033 C618.028,896.033 595.334,895.904 595.334,895.904 C594.464,895.899 593.926,893.765 593.927,892.879 C593.927,892.879 594.102,770.388 594.102,770.388 C594.104,769.331 597.146,767.203 598.183,767.193 C598.183,767.193 612.868,767.058 612.868,767.058 C616.303,767.026 618.22,768.787 618.227,772.05 C618.227,772.05 618.382,839.732 618.382,839.732 C618.382,839.732 654.008,804.269 654.008,804.269 C654.008,804.269 676.306,804.481 676.306,804.481 C677.543,804.493 680.205,806.766 679.052,807.989 C679.052,807.989 662.493,825.564 662.493,825.564 C662.493,825.564 647.739,841.026 647.739,841.026 C646.189,842.65 643.979,844.722 645.865,847.164 Z "/>
    <path id="wordmark-a-upper" data-name="Wordmark A Upper" class="brand-green" d="M385.033,732.068 C380.27,722.099 381.171,710.278 387.644,701.84 C393.676,693.975 407.921,691.01 418.666,689.589 C418.666,689.589 435.372,687.38 435.372,687.38 C435.372,687.38 444.919,686.111 444.919,686.111 C445.457,680.714 444.227,675.944 440.752,672.798 C437.039,669.437 432.418,667.795 427.031,667.837 C418.205,667.906 410.498,671.858 407.625,680.563 C407.625,680.563 390.079,679.998 390.079,679.998 C383.447,679.785 387.455,658.042 408.953,650.934 C417.498,648.108 425.743,647.945 434.367,648.344 C452.588,649.187 467.112,660.806 468.555,679.762 C470.12,700.333 470.125,720.926 469.97,741.73 C469.97,741.73 467.723,743.976 467.723,743.976 C467.723,743.976 449.325,743.518 449.325,743.518 C446.206,743.44 446.517,737.747 447.034,734.808 C447.034,734.808 435.924,741.701 435.924,741.701 C435.059,742.238 433.379,743.294 432.605,743.506 C432.605,743.506 425.076,745.566 425.076,745.566 C417.756,746.192 410.491,746.833 403.974,745.127 C396.07,743.057 388.567,739.464 385.033,732.068 Z M410.243,723.979 C416.979,729.114 427.381,727.886 434.631,723.82 C442.708,719.291 446.67,711.097 444.987,702.1 C444.987,702.1 427.663,703.681 427.663,703.681 C421.555,704.239 416.305,705.314 410.648,709.056 C406.534,711.777 405.226,720.155 410.243,723.979 Z "/>
    <path id="wordmark-a-lower" data-name="Wordmark A Lower" class="brand-green" d="M440.694,854.507 C445.043,849.457 449.78,847.301 455.197,846.144 C455.197,846.144 466.794,843.667 466.794,843.667 C466.794,843.667 479.061,842.062 479.061,842.062 C484.923,841.296 490.878,840.736 496.841,839.936 C497.963,834.436 496.374,829.887 493.287,826.385 C489.342,821.909 485.106,821.837 478.944,821.688 C470.93,821.493 463.408,824.503 460.651,833.274 C460.651,833.274 444.968,833.505 444.968,833.505 C442.761,833.538 440.947,833.713 439.767,831.775 C438.8,830.186 439.431,828.331 439.906,825.998 C442.702,812.264 454.603,805.989 467.011,802.911 C476.126,800.651 484.785,800.952 493.877,802.927 C508.65,806.135 520.177,817.113 520.536,832.82 C520.536,832.82 521.977,895.819 521.977,895.819 C521.977,895.819 500.886,896.004 500.886,896.004 C497.835,896.031 499.682,889.157 498.334,888.218 C496.183,886.718 490.625,899.293 466.96,899.121 C456.898,899.048 446.494,897.122 440.111,889.011 C432.177,878.929 432.566,863.948 440.694,854.507 Z M471.079,879.98 C481.832,881.124 492.221,875.779 496.557,865.557 C497.812,862.597 496.881,858.372 497.099,855.284 C493.49,854.357 490.714,856.014 487.688,856.387 C487.688,856.387 474.131,858.058 474.131,858.058 C469.39,859.544 463.89,860.408 461.002,864.878 C459.281,867.544 458.53,870.052 459.466,872.924 C460.946,877.461 465.491,879.386 471.079,879.98 Z "/>
    <path id="wordmark-o" data-name="Wordmark O" class="brand-green" d="M747.922,728.546 C735.4,744.274 714.768,749.031 695.824,745.178 C678.468,741.648 665.364,730.88 660.285,713.591 C656.51,700.738 656.645,686.051 662.964,673.899 C671.244,657.976 688.089,648.979 705.512,648.771 C706.453,647.65 707.588,647.653 708.533,648.809 C723.683,648.256 739.025,653.921 748.582,666.52 C762.204,684.48 761.792,711.126 747.922,728.546 Z M682.728,696.888 C682.147,712.939 693.142,725.509 708.507,725.27 C723.87,725.031 734.143,712.598 733.764,696.939 C733.438,683.492 725.125,671.048 711.084,669.87 C701.263,669.046 691.686,672.722 687.127,680.893 C684.107,686.303 682.936,691.13 682.728,696.888 Z "/>
    <path id="wordmark-t" data-name="Wordmark T" class="brand-green" d="M396.777,891.443 C396.777,891.443 395.779,896.081 395.779,896.081 C395.779,896.081 372.289,896.126 372.289,896.126 C372.172,895.165 371.877,894.173 370.956,893.657 C370.956,893.657 370.951,796.049 370.951,796.049 C370.951,796.049 337.22,795.949 337.22,795.949 C336.709,795.345 335.917,794.205 335.079,793.766 C335.079,793.766 335.05,774.126 335.05,774.126 C336.477,773.32 338.252,771.716 340.026,771.719 C340.026,771.719 430.44,771.883 430.44,771.883 C431.997,771.885 434.409,774.556 434.407,775.76 C434.407,775.76 434.389,791.213 434.389,791.213 C434.385,794.373 432.045,796.059 429.013,796.057 C429.013,796.057 396.634,796.039 396.634,796.039 C396.634,796.039 396.618,854.632 396.618,854.632 C396.618,854.632 396.777,891.443 396.777,891.443 Z "/>
    <path id="wordmark-l" data-name="Wordmark L" class="brand-green" d="M568.983,895.907 C568.983,895.907 547.319,896.076 547.319,896.076 C547.188,895.059 546.946,894.246 545.969,893.651 C545.969,893.651 546.009,769.359 546.009,769.359 C546.009,769.359 549.193,767.354 549.193,767.354 C549.193,767.354 566.961,767.297 566.961,767.297 C569.64,767.288 570.456,770.64 570.455,773.107 C570.455,773.107 570.399,892.868 570.399,892.868 C570.487,893.321 569.717,895.901 568.983,895.907 Z "/>
  </g>
  <g id="wordmark-counters" data-name="Wordmark Counters">
    <path id="wordmark-a-counter-upper" data-name="Wordmark A Counter Upper" class="background-cream" d="M410.243,723.979 C405.226,720.155 406.534,711.777 410.648,709.056 C416.305,705.314 421.555,704.239 427.663,703.681 C427.663,703.681 444.987,702.1 444.987,702.1 C446.67,711.097 442.708,719.291 434.631,723.82 C427.381,727.886 416.979,729.114 410.243,723.979 Z "/>
    <path id="wordmark-a-counter-lower" data-name="Wordmark A Counter Lower" class="background-cream" d="M471.079,879.98 C465.491,879.386 460.946,877.461 459.466,872.924 C458.53,870.052 459.281,867.544 461.002,864.878 C463.89,860.408 469.39,859.544 474.131,858.058 C474.131,858.058 487.688,856.387 487.688,856.387 C490.714,856.014 493.49,854.357 497.099,855.284 C496.881,858.372 497.812,862.597 496.557,865.557 C492.221,875.779 481.832,881.124 471.079,879.98 Z "/>
    <path id="wordmark-o-counter" data-name="Wordmark O Counter" class="background-cream" d="M682.728,696.888 C682.936,691.13 684.107,686.303 687.127,680.893 C691.686,672.722 701.263,669.046 711.084,669.87 C725.125,671.048 733.438,683.492 733.764,696.939 C734.143,712.598 723.87,725.031 708.507,725.27 C693.142,725.509 682.147,712.939 682.728,696.888 Z "/>
  </g>
</svg>
