<?xml version="1.0" encoding="UTF-8"?>
<svg id="kamotalk-symbol" data-name="KamoTalk Symbol" xmlns="http://www.w3.org/2000/svg" viewBox="0 0 475.08 438.07" role="img" aria-labelledby="title desc">
  <title id="title">KamoTalk symbol</title>
  <desc id="desc">KamoTalk duck symbol in a rounded speech bubble.</desc>
  <defs>
    <style>
      .brand-green {
        fill: #2eb08e;
      }

      .duck-cream {
        fill: #faf3e3;
      }

      .duck-orange {
        fill: #fcab4d;
      }
    </style>
  </defs>
  <g id="symbol-artwork" data-name="Symbol Artwork">
    <path id="speech-bubble" data-name="Speech Bubble" class="brand-green" d="M103.05,378.04c-54.72-1.87-99.51-45.99-103.05-100.45L.05,99.55C3.71,46.45,47.49,3.37,100.5,0l275.03.05c53.27,4.16,96.15,46.87,99.55,100.45l-.05,178.03c-3.39,49.21-41.89,91.1-90.62,98.38l-187.65,1.35-68.77,56.23c-9.16,6.89-21,3.53-24.51-7.37l-.43-49.07Z"/>
    <path id="duck-head" data-name="Duck Head" class="duck-cream" d="M339.04,152.04c-6.67-3.36-15.99,1.27-19.95,6.76-5.47,7.59-8.72,16.71-15.44,24.88-5.3,6.43-24.43,20.42-25.55,26.93-.96,5.61,1.39,12.31,6.94,14.43-46.71,13.12-38.89,59.55-14,90H126.04c1.19-14.85,2.46-29.6,2.04-44.54-1.09-38.85-11.66-77.99-4.79-116.7,11.49-64.71,61.46-108.41,128.98-98.48,50.32,7.4,78.72,49.45,86.77,96.73Z"/>
    <path id="duck-beak" data-name="Duck Beak" class="duck-orange" d="M339.04,152.04c8.26,6.91,15.9,17.71,24.06,24.27,9.19,7.38,24.24,15.7,35.26,19.91,12.11,4.62,41.39,8.32,27.61,28.03-.57.81-5.24,4.55-6.17,5.11-21.37,12.88-52.12,10.87-76.38,7.8-16.4-2.08-43.16-6.3-58.38-12.12-5.55-2.12-7.91-8.82-6.94-14.43,1.12-6.51,20.25-20.49,25.55-26.93,6.73-8.17,9.97-17.29,15.44-24.88,3.96-5.49,13.28-10.13,19.95-6.76Z"/>
    <path id="duck-eye" data-name="Duck Eye" class="brand-green" d="M268.6,146.64c-4.77,6.31-16.26,7.42-22.6,2.94-8.49-5.99-10-18.83-2.6-26.18,14.48-14.39,39.58,4.21,25.2,23.24Z"/>
  </g>
</svg>
